<svg width="18" height="18" viewBox="0 0 18 18" fill="none" xmlns="http://www.w3.org/2000/svg">
<path d="M13.25 17.75H11.375C11.0435 17.75 10.7255 17.6183 10.4911 17.3839C10.2567 17.1495 10.125 16.8315 10.125 16.5V9.625H13.875C14.2242 9.62506 14.5696 9.55195 14.8888 9.4104C15.208 9.26884 15.4941 9.06198 15.7285 8.80313C15.9629 8.54429 16.1405 8.2392 16.2498 7.90754C16.3591 7.57588 16.3977 7.225 16.3631 6.8775C16.2793 6.24532 15.9656 5.66615 15.4819 5.25064C14.9981 4.83513 14.3782 4.6124 13.7406 4.625H12.7512L12.6406 4.13812C12.2825 2.56 10.7694 1.5 8.875 1.5C8.15969 1.50234 7.45988 1.70854 6.85758 2.09443C6.25528 2.48031 5.77547 3.0299 5.47437 3.67875L5.28125 4.09562L4.74188 4.02437C4.66186 4.01103 4.58107 4.00288 4.5 4C3.83696 4 3.20107 4.26339 2.73223 4.73223C2.26339 5.20107 2 5.83696 2 6.5C2 7.16304 2.26339 7.79893 2.73223 8.26777C3.20107 8.73661 3.83696 9 4.5 9V10.25C3.50544 10.25 2.55161 9.85491 1.84835 9.15165C1.14509 8.44839 0.75 7.49456 0.75 6.5C0.75 5.50544 1.14509 4.55161 1.84835 3.84835C2.55161 3.14509 3.50544 2.75 4.5 2.75L4.54938 2.75062C4.9892 1.99234 5.61997 1.36249 6.37889 0.923764C7.1378 0.485037 7.9984 0.252741 8.875 0.25C11.1744 0.25 13.0575 1.48625 13.72 3.375H13.7406C14.6886 3.36443 15.6072 3.70375 16.3206 4.32805C17.034 4.95234 17.4922 5.81777 17.6075 6.75875C17.6586 7.27963 17.6001 7.80543 17.4358 8.30235C17.2715 8.79926 17.005 9.25628 16.6534 9.64399C16.3018 10.0317 15.873 10.3415 15.3945 10.5536C14.916 10.7656 14.3984 10.8751 13.875 10.875H11.375V16.5H13.25V17.75Z" fill="#1EA575"/>
</svg>
